# xmcd CD database file
#
# Track frame offsets:
#	150
#	27915
#	48642
#	64515
#	84617
#	99347
#	114645
#	132800
#	159860
#	179657
#	191470
#	206842
#	226917
#	245970
#
# Disc length: 3502 seconds
#
# Revision: 2
# Processed by: cddbd v1.4PL0 Copyright (c) Steve Scherf et al.
# Submitted via: CDex 1.50beta10
#
DISCID=bf0dac0e
DTITLE=Gitanes Jazz - Blues
DYEAR=1989
DGENRE=Blues
TTITLE0=John Lee Hooker - The Right Time
TTITLE1=Big Bill Broonzy - When The Sun Goes Down
TTITLE2=Mickey Baker - Trouble Is A Woman
TTITLE3=Otis Spann - What Will Become Of Me?
TTITLE4=Champion Jack Dupree - Georgiana
TTITLE5=Curtis Jones - You Got Good Business
TTITLE6=T-Bone Walker - I'm In Love
TTITLE7=Memphis Slim/Buddy Guy - Rolling And Tumbling
TTITLE8=Otis Spann - Sometimes I Wonder
TTITLE9=Curtis Jones - Roll Me Over
TTITLE10=John Lee Hooker - I Need Your Love So Bad
TTITLE11=Champion Jack Dupree - Poor Poor Me
TTITLE12=Big Bill Broonzy - Backwater Blues
TTITLE13=Mickey Baker - Blues Before Sunrise
EXTD=YEAR: 1989
EXTT0=
EXTT1=
EXTT2=
EXTT3=
EXTT4=
EXTT5=
EXTT6=
EXTT7=
EXTT8=
EXTT9=
EXTT10=
EXTT11=
EXTT12=
EXTT13=
PLAYORDER=
